<svg width="396" height="396" viewBox="0 0 396 396" fill="none" xmlns="http://www.w3.org/2000/svg">
<circle cx="198" cy="198" r="198" fill="black"/>
<path d="M102.199 161.397C91.9342 150.965 75.1559 150.83 64.724 161.095C54.2921 171.361 54.1569 188.139 64.4221 198.571L102.199 161.397ZM64.4221 198.571L146.111 281.587L183.889 244.413L102.199 161.397L64.4221 198.571Z" fill="white"/>
<path d="M330.02 143.606C340.731 133.631 341.328 116.863 331.354 106.153C321.38 95.4421 304.611 94.8451 293.901 104.819L330.02 143.606ZM145.94 242.607L126.547 260.667L162.667 299.453L182.06 281.393L145.94 242.607ZM293.901 104.819L145.94 242.607L182.06 281.393L330.02 143.606L293.901 104.819Z" fill="white"/>
</svg>
