<svg width="383" height="32" viewBox="0 0 383 32" fill="none" xmlns="http://www.w3.org/2000/svg">
<path d="M0.666664 26.5053C0.666664 29.4508 3.05448 31.8387 6 31.8387C8.94552 31.8387 11.3333 29.4508 11.3333 26.5053C11.3333 23.5598 8.94552 21.172 6 21.172C3.05448 21.172 0.666665 23.5598 0.666664 26.5053ZM178.5 1.00002L178.5 1.50804e-05L178.5 1.00002ZM383 26.504L374.691 18.4858L371.901 29.6908L383 26.504ZM6 26.5053C6.37526 27.4322 6.37522 27.4323 6.37543 27.4322C6.37582 27.432 6.37627 27.4318 6.37704 27.4315C6.3786 27.4309 6.38112 27.4299 6.38459 27.4285C6.39154 27.4257 6.40233 27.4214 6.41694 27.4155C6.44616 27.4039 6.4907 27.3862 6.55048 27.3626C6.67005 27.3155 6.85061 27.2451 7.09165 27.1528C7.57374 26.9684 8.29778 26.6967 9.25973 26.3502C11.1836 25.6574 14.0592 24.6655 17.8542 23.4742C25.4442 21.0916 36.7118 17.9114 51.3992 14.73C80.774 8.36726 123.828 2.00002 178.5 2.00002L178.5 1.50804e-05C123.672 1.50804e-05 80.476 6.38543 50.9758 12.7753C36.2257 15.9703 24.8996 19.1664 17.2552 21.566C13.433 22.7659 10.5312 23.7666 8.58206 24.4685C7.60749 24.8195 6.87108 25.0958 6.37685 25.2849C6.12974 25.3795 5.94317 25.4523 5.81765 25.5017C5.75489 25.5264 5.70739 25.5453 5.67522 25.5582C5.65913 25.5646 5.64688 25.5695 5.63846 25.5729C5.63425 25.5746 5.631 25.5759 5.62872 25.5768C5.62757 25.5773 5.62658 25.5777 5.62601 25.5779C5.62525 25.5782 5.62474 25.5784 6 26.5053ZM178.5 2.00002C268.218 2.00002 348.203 19.1448 374.038 25.3034L374.502 23.3579C348.599 17.1832 268.442 1.50804e-05 178.5 1.50804e-05V2.00002Z" fill="#9C9C9C"/>
</svg>
